<mxfile host="Electron" modified="2024-07-12T02:51:15.695Z" agent="Mozilla/5.0 (Windows NT 10.0; Win64; x64) AppleWebKit/537.36 (KHTML, like Gecko) draw.io/24.6.4 Chrome/124.0.6367.207 Electron/30.0.6 Safari/537.36" etag="-qfsu5opOU3u-SVOImBX" version="24.6.4" type="device">
  <diagram name="Page-1" id="bTtyzCqTs-vy3DoWyehP">
    <mxGraphModel dx="1235" dy="731" grid="1" gridSize="10" guides="1" tooltips="1" connect="1" arrows="1" fold="1" page="1" pageScale="1" pageWidth="1100" pageHeight="850" math="1" shadow="0">
      <root>
        <mxCell id="0" />
        <mxCell id="1" parent="0" />
        <mxCell id="i1ACQIUt5gywTmmsqVxy-4" value="" style="rounded=0;whiteSpace=wrap;html=1;fillColor=#CC99FF;strokeColor=default;" vertex="1" parent="1">
          <mxGeometry x="300" y="172" width="60" height="330" as="geometry" />
        </mxCell>
        <mxCell id="i1ACQIUt5gywTmmsqVxy-5" value="" style="rounded=0;whiteSpace=wrap;html=1;fillColor=#66FFB3;strokeColor=default;" vertex="1" parent="1">
          <mxGeometry x="380" y="112" width="60" height="220" as="geometry" />
        </mxCell>
        <mxCell id="i1ACQIUt5gywTmmsqVxy-6" value="" style="endArrow=none;html=1;rounded=0;strokeWidth=4;" edge="1" parent="1">
          <mxGeometry width="50" height="50" relative="1" as="geometry">
            <mxPoint x="290" y="172" as="sourcePoint" />
            <mxPoint x="370" y="172" as="targetPoint" />
          </mxGeometry>
        </mxCell>
        <mxCell id="i1ACQIUt5gywTmmsqVxy-7" value="" style="endArrow=none;html=1;rounded=0;strokeWidth=4;" edge="1" parent="1">
          <mxGeometry width="50" height="50" relative="1" as="geometry">
            <mxPoint x="290" y="502" as="sourcePoint" />
            <mxPoint x="370" y="502" as="targetPoint" />
          </mxGeometry>
        </mxCell>
        <mxCell id="i1ACQIUt5gywTmmsqVxy-8" value="" style="endArrow=none;html=1;rounded=0;strokeWidth=4;" edge="1" parent="1">
          <mxGeometry width="50" height="50" relative="1" as="geometry">
            <mxPoint x="370" y="112" as="sourcePoint" />
            <mxPoint x="450" y="112" as="targetPoint" />
          </mxGeometry>
        </mxCell>
        <mxCell id="i1ACQIUt5gywTmmsqVxy-9" value="" style="endArrow=none;html=1;rounded=0;strokeWidth=4;" edge="1" parent="1">
          <mxGeometry width="50" height="50" relative="1" as="geometry">
            <mxPoint x="370" y="332" as="sourcePoint" />
            <mxPoint x="450" y="332" as="targetPoint" />
          </mxGeometry>
        </mxCell>
        <mxCell id="i1ACQIUt5gywTmmsqVxy-10" value="" style="rounded=0;whiteSpace=wrap;html=1;fillColor=#FF9933;strokeColor=default;" vertex="1" parent="1">
          <mxGeometry x="594" y="409" width="60" height="170" as="geometry" />
        </mxCell>
        <mxCell id="i1ACQIUt5gywTmmsqVxy-11" value="" style="rounded=0;whiteSpace=wrap;html=1;fillColor=#E6FFCC;strokeColor=default;" vertex="1" parent="1">
          <mxGeometry x="674" y="319" width="60" height="140" as="geometry" />
        </mxCell>
        <mxCell id="i1ACQIUt5gywTmmsqVxy-12" value="" style="endArrow=none;html=1;rounded=0;strokeWidth=4;" edge="1" parent="1">
          <mxGeometry width="50" height="50" relative="1" as="geometry">
            <mxPoint x="584" y="408" as="sourcePoint" />
            <mxPoint x="664" y="408" as="targetPoint" />
          </mxGeometry>
        </mxCell>
        <mxCell id="i1ACQIUt5gywTmmsqVxy-13" value="" style="endArrow=none;html=1;rounded=0;strokeWidth=4;" edge="1" parent="1">
          <mxGeometry width="50" height="50" relative="1" as="geometry">
            <mxPoint x="584" y="579" as="sourcePoint" />
            <mxPoint x="664" y="579" as="targetPoint" />
          </mxGeometry>
        </mxCell>
        <mxCell id="i1ACQIUt5gywTmmsqVxy-14" value="" style="endArrow=none;html=1;rounded=0;strokeWidth=4;" edge="1" parent="1">
          <mxGeometry width="50" height="50" relative="1" as="geometry">
            <mxPoint x="664" y="459" as="sourcePoint" />
            <mxPoint x="744" y="459" as="targetPoint" />
          </mxGeometry>
        </mxCell>
        <mxCell id="i1ACQIUt5gywTmmsqVxy-15" value="" style="endArrow=none;html=1;rounded=0;strokeWidth=4;" edge="1" parent="1">
          <mxGeometry width="50" height="50" relative="1" as="geometry">
            <mxPoint x="664" y="319" as="sourcePoint" />
            <mxPoint x="744" y="319" as="targetPoint" />
          </mxGeometry>
        </mxCell>
        <mxCell id="i1ACQIUt5gywTmmsqVxy-16" value="$$\sum_{g\in\mathbb{\mathcal{G}}}P_{g}^{\textit{max}}$$" style="text;html=1;align=center;verticalAlign=middle;whiteSpace=wrap;rounded=0;fontSize=16;" vertex="1" parent="1">
          <mxGeometry x="220" y="140" width="70" height="60" as="geometry" />
        </mxCell>
        <mxCell id="i1ACQIUt5gywTmmsqVxy-17" value="$$\sum_{g\in\mathbb{\mathcal{G}}}P_{g}^{\textit{min}}$$" style="text;html=1;align=center;verticalAlign=middle;whiteSpace=wrap;rounded=0;fontSize=16;" vertex="1" parent="1">
          <mxGeometry x="220" y="470" width="70" height="60" as="geometry" />
        </mxCell>
        <mxCell id="i1ACQIUt5gywTmmsqVxy-18" value="$$\sum_{a\in\mathbb{\mathcal{A}}}P_{a}^{\textit{n}}$$" style="text;html=1;align=center;verticalAlign=middle;whiteSpace=wrap;rounded=0;fontSize=16;" vertex="1" parent="1">
          <mxGeometry x="450" y="90" width="75" height="60" as="geometry" />
        </mxCell>
        <mxCell id="i1ACQIUt5gywTmmsqVxy-19" value="$$\sum_{a\in\mathbb{\mathcal{A}}}P_{a}^{\textit{c}}$$" style="text;html=1;align=center;verticalAlign=middle;whiteSpace=wrap;rounded=0;fontSize=16;" vertex="1" parent="1">
          <mxGeometry x="452.5" y="307" width="70" height="60" as="geometry" />
        </mxCell>
        <mxCell id="i1ACQIUt5gywTmmsqVxy-20" value="$$\sum_{g\in\mathbb{\mathcal{G}}}Q_{g}^{\textit{max}}$$" style="text;html=1;align=center;verticalAlign=middle;whiteSpace=wrap;rounded=0;fontSize=16;" vertex="1" parent="1">
          <mxGeometry x="516" y="380" width="70" height="60" as="geometry" />
        </mxCell>
        <mxCell id="i1ACQIUt5gywTmmsqVxy-21" value="$$\sum_{g\in\mathbb{\mathcal{G}}}Q_{g}^{\textit{min}}$$" style="text;html=1;align=center;verticalAlign=middle;whiteSpace=wrap;rounded=0;fontSize=16;" vertex="1" parent="1">
          <mxGeometry x="516" y="540" width="70" height="60" as="geometry" />
        </mxCell>
        <mxCell id="i1ACQIUt5gywTmmsqVxy-23" value="$$\sum_{a\in\mathbb{\mathcal{A}}}Q_{a}^{\textit{n}}$$" style="text;html=1;align=center;verticalAlign=middle;whiteSpace=wrap;rounded=0;fontSize=16;" vertex="1" parent="1">
          <mxGeometry x="736" y="300" width="75" height="60" as="geometry" />
        </mxCell>
        <mxCell id="i1ACQIUt5gywTmmsqVxy-24" value="$$\sum_{a\in\mathbb{\mathcal{A}}}Q_{a}^{\textit{c}}$$" style="text;html=1;align=center;verticalAlign=middle;whiteSpace=wrap;rounded=0;fontSize=16;" vertex="1" parent="1">
          <mxGeometry x="738.5" y="440" width="70" height="60" as="geometry" />
        </mxCell>
        <mxCell id="i1ACQIUt5gywTmmsqVxy-26" value="" style="endArrow=none;html=1;rounded=0;strokeWidth=4;" edge="1" parent="1" source="i1ACQIUt5gywTmmsqVxy-27">
          <mxGeometry width="50" height="50" relative="1" as="geometry">
            <mxPoint x="270" y="614.5" as="sourcePoint" />
            <mxPoint x="450" y="615" as="targetPoint" />
          </mxGeometry>
        </mxCell>
        <mxCell id="i1ACQIUt5gywTmmsqVxy-27" value="$$0$$" style="text;html=1;align=center;verticalAlign=middle;whiteSpace=wrap;rounded=0;fontSize=25;" vertex="1" parent="1">
          <mxGeometry x="212" y="600" width="33" height="30" as="geometry" />
        </mxCell>
        <mxCell id="i1ACQIUt5gywTmmsqVxy-28" value="" style="endArrow=none;html=1;rounded=0;strokeWidth=4;" edge="1" parent="1">
          <mxGeometry width="50" height="50" relative="1" as="geometry">
            <mxPoint x="536" y="615" as="sourcePoint" />
            <mxPoint x="751" y="615" as="targetPoint" />
          </mxGeometry>
        </mxCell>
        <mxCell id="i1ACQIUt5gywTmmsqVxy-29" value="$$0$$" style="text;html=1;align=center;verticalAlign=middle;whiteSpace=wrap;rounded=0;fontSize=25;" vertex="1" parent="1">
          <mxGeometry x="502" y="600" width="33" height="30" as="geometry" />
        </mxCell>
      </root>
    </mxGraphModel>
  </diagram>
</mxfile>
